<?xml version="1.0" encoding="UTF-8" standalone="no"?>
<!-- Created with Inkscape (http://www.inkscape.org/) -->
<svg
   xmlns:dc="http://purl.org/dc/elements/1.1/"
   xmlns:cc="http://creativecommons.org/ns#"
   xmlns:rdf="http://www.w3.org/1999/02/22-rdf-syntax-ns#"
   xmlns:svg="http://www.w3.org/2000/svg"
   xmlns="http://www.w3.org/2000/svg"
   xmlns:xlink="http://www.w3.org/1999/xlink"
   xmlns:sodipodi="http://sodipodi.sourceforge.net/DTD/sodipodi-0.dtd"
   xmlns:inkscape="http://www.inkscape.org/namespaces/inkscape"
   width="744.09448819"
   height="1052.3622047"
   id="svg2"
   sodipodi:version="0.32"
   inkscape:version="0.46"
   sodipodi:docname="feather.svg"
   inkscape:output_extension="org.inkscape.output.svg.inkscape">
  <defs
     id="defs4">
    <linearGradient
       id="linearGradient3466">
      <stop
         style="stop-color:#d4450b;stop-opacity:1;"
         offset="0"
         id="stop3468" />
      <stop
         style="stop-color:#99240e;stop-opacity:1;"
         offset="1"
         id="stop3470" />
    </linearGradient>
    <linearGradient
       id="linearGradient3436">
      <stop
         style="stop-color:#ff9700;stop-opacity:1;"
         offset="0"
         id="stop3438" />
      <stop
         style="stop-color:#ff1f00;stop-opacity:1;"
         offset="1"
         id="stop3440" />
    </linearGradient>
    <inkscape:perspective
       sodipodi:type="inkscape:persp3d"
       inkscape:vp_x="0 : 526.18109 : 1"
       inkscape:vp_y="0 : 1000 : 0"
       inkscape:vp_z="744.09448 : 526.18109 : 1"
       inkscape:persp3d-origin="372.04724 : 350.78739 : 1"
       id="perspective10" />
    <radialGradient
       inkscape:collect="always"
       xlink:href="#linearGradient3436"
       id="radialGradient3446"
       cx="549.64288"
       cy="231.29076"
       fx="549.64288"
       fy="231.29076"
       r="24.393126"
       gradientTransform="matrix(1,0,0,0.9414356,0,13.545414)"
       gradientUnits="userSpaceOnUse" />
    <radialGradient
       inkscape:collect="always"
       xlink:href="#linearGradient3466"
       id="radialGradient3474"
       cx="622.3866"
       cy="222.60936"
       fx="622.3866"
       fy="222.60936"
       r="18.164446"
       gradientTransform="matrix(1,0,0,0.8002538,-28.284271,50.526283)"
       gradientUnits="userSpaceOnUse" />
  </defs>
  <sodipodi:namedview
     id="base"
     pagecolor="#ffffff"
     bordercolor="#666666"
     borderopacity="1.0"
     gridtolerance="10000"
     guidetolerance="10"
     objecttolerance="10"
     inkscape:pageopacity="0.0"
     inkscape:pageshadow="2"
     inkscape:zoom="0.98994949"
     inkscape:cx="365.33242"
     inkscape:cy="815.51147"
     inkscape:document-units="px"
     inkscape:current-layer="layer1"
     showgrid="false"
     inkscape:window-width="1280"
     inkscape:window-height="952"
     inkscape:window-x="-4"
     inkscape:window-y="-4" />
  <metadata
     id="metadata7">
    <rdf:RDF>
      <cc:Work
         rdf:about="">
        <dc:format>image/svg+xml</dc:format>
        <dc:type
           rdf:resource="http://purl.org/dc/dcmitype/StillImage" />
      </cc:Work>
    </rdf:RDF>
  </metadata>
  <g
     inkscape:label="Layer 1"
     inkscape:groupmode="layer"
     id="layer1">
    <path
       style="fill:none;fill-rule:evenodd;stroke:#000000;stroke-width:2;stroke-linecap:butt;stroke-linejoin:miter;stroke-miterlimit:4;stroke-dasharray:none;stroke-opacity:1"
       d="M 22.14286,249.50504 L 100.71429,249.50503 C 100.71429,249.50503 112.14486,205.29105 62.142856,206.64789 C 14.933302,207.90957 22.85714,249.50504 22.14286,249.50504 z"
       id="path3171"
       sodipodi:nodetypes="ccsc" />
    <path
       sodipodi:type="arc"
       style="opacity:1;fill:#ffe28d;fill-opacity:1;fill-rule:nonzero;stroke:#000000;stroke-width:2;stroke-linecap:round;stroke-linejoin:miter;stroke-miterlimit:4;stroke-dasharray:none;stroke-dashoffset:0;stroke-opacity:1"
       id="path3155"
       sodipodi:cx="135.35715"
       sodipodi:cy="189.1479"
       sodipodi:rx="34.642857"
       sodipodi:ry="34.642857"
       d="M 170,189.1479 A 34.642857,34.642857 0 1 1 100.71429,189.1479 A 34.642857,34.642857 0 1 1 170,189.1479 z"
       transform="translate(-74.285714,4.2857143)" />
    <path
       sodipodi:type="arc"
       style="opacity:1;fill:#000000;fill-opacity:1;fill-rule:nonzero;stroke:#000000;stroke-width:2;stroke-linecap:round;stroke-linejoin:miter;stroke-miterlimit:4;stroke-dasharray:none;stroke-dashoffset:0;stroke-opacity:1"
       id="path3167"
       sodipodi:cx="87.5"
       sodipodi:cy="263.43362"
       sodipodi:rx="3.2142856"
       sodipodi:ry="8.2142859"
       d="M 90.714286,263.43362 A 3.2142856,8.2142859 0 1 1 84.285714,263.43362 A 3.2142856,8.2142859 0 1 1 90.714286,263.43362 z"
       transform="translate(-28.571428,-72.857143)" />
    <path
       style="fill:#ff4d00;fill-opacity:1;fill-rule:evenodd;stroke:#000000;stroke-width:2.08934402;stroke-linecap:butt;stroke-linejoin:miter;stroke-miterlimit:4;stroke-dasharray:none;stroke-opacity:1"
       d="M 66.967706,173.79128 L 86.601406,182.35008 L 81.019896,168.08539 L 102.09818,169.51186 L 91.168696,158.10011 L 95.072086,143.83542 L 75.555156,151.681 L 61.502966,146.68836 L 55.257546,155.9604 L 40.424676,147.40159 L 38.863326,161.66628 L 13.881667,166.65893 L 24.811149,173.79128 L 10.758958,185.91626 L 25.591829,184.48979 L 23.249791,204.46036 L 37.301976,183.06332 L 41.986036,194.47507 L 49.792806,177.35744 L 68.197106,186.6295 L 66.967706,173.79128 z"
       id="path3157"
       sodipodi:nodetypes="ccccccccccccccccccccc" />
    <path
       sodipodi:type="arc"
       style="opacity:1;fill:#000000;fill-opacity:1;fill-rule:nonzero;stroke:#000000;stroke-width:2;stroke-linecap:round;stroke-linejoin:miter;stroke-miterlimit:4;stroke-dasharray:none;stroke-dashoffset:0;stroke-opacity:1"
       id="path3169"
       sodipodi:cx="87.5"
       sodipodi:cy="263.43362"
       sodipodi:rx="3.2142856"
       sodipodi:ry="8.2142859"
       d="M 90.714286,263.43362 A 3.2142856,8.2142859 0 1 1 84.285714,263.43362 A 3.2142856,8.2142859 0 1 1 90.714286,263.43362 z"
       transform="translate(-8.2142854,-73.2143)" />
    <path
       style="fill:#8dbbff;fill-opacity:1;fill-rule:evenodd;stroke:#000000;stroke-width:2;stroke-linecap:butt;stroke-linejoin:miter;stroke-miterlimit:4;stroke-dasharray:none;stroke-opacity:1"
       d="M 22.142858,250.21932 L 35.714286,268.07646 L 87.142856,268.07646 L 99.999996,248.79075 L 22.142858,250.21932 z"
       id="path3175" />
    <path
       sodipodi:type="arc"
       style="opacity:1;fill:#ffe28d;fill-opacity:1;fill-rule:nonzero;stroke:#000000;stroke-width:2;stroke-linecap:round;stroke-linejoin:miter;stroke-miterlimit:4;stroke-dasharray:none;stroke-dashoffset:0;stroke-opacity:1"
       id="path3181"
       sodipodi:cx="112.85714"
       sodipodi:cy="302.36218"
       sodipodi:rx="11.428572"
       sodipodi:ry="11.428572"
       d="M 124.28571,302.36218 A 11.428572,11.428572 0 1 1 101.42857,302.36218 A 11.428572,11.428572 0 1 1 124.28571,302.36218 z"
       transform="matrix(-0.1632975,-0.9865769,0.9865769,-0.1632975,-134.38596,393.82255)" />
    <path
       sodipodi:type="arc"
       style="opacity:1;fill:#ffe28d;fill-opacity:1;fill-rule:nonzero;stroke:#000000;stroke-width:2;stroke-linecap:round;stroke-linejoin:miter;stroke-miterlimit:4;stroke-dasharray:none;stroke-dashoffset:0;stroke-opacity:1"
       id="path3179"
       sodipodi:cx="100.71429"
       sodipodi:cy="295.21933"
       sodipodi:rx="5.7142859"
       sodipodi:ry="5.7142859"
       d="M 106.42857,295.21933 A 5.7142859,5.7142859 0 1 1 95.000001,295.21933 A 5.7142859,5.7142859 0 1 1 106.42857,295.21933 z"
       transform="matrix(-0.1632975,-0.9865769,0.9865769,-0.1632975,-134.38596,393.82255)" />
    <rect
       style="opacity:1;fill:#6c6c6c;fill-opacity:1;fill-rule:nonzero;stroke:#000000;stroke-width:1.99999988;stroke-linecap:round;stroke-linejoin:miter;stroke-miterlimit:4;stroke-dasharray:none;stroke-dashoffset:0;stroke-opacity:1"
       id="rect3187"
       width="83.571419"
       height="22.142855"
       x="-16.466558"
       y="273.89969"
       transform="matrix(0.8565352,-0.5160887,0.5160887,0.8565352,0,0)" />
    <path
       sodipodi:type="arc"
       style="opacity:1;fill:#ffe28d;fill-opacity:1;fill-rule:nonzero;stroke:#000000;stroke-width:2;stroke-linecap:round;stroke-linejoin:miter;stroke-miterlimit:4;stroke-dasharray:none;stroke-dashoffset:0;stroke-opacity:1"
       id="path3189"
       sodipodi:cx="112.85714"
       sodipodi:cy="302.36218"
       sodipodi:rx="11.428572"
       sodipodi:ry="11.428572"
       d="M 124.28571,302.36218 A 11.428572,11.428572 0 1 1 101.42857,302.36218 A 11.428572,11.428572 0 1 1 124.28571,302.36218 z"
       transform="matrix(0.8565352,-0.5160889,0.5160889,0.8565352,-71.385494,37.301625)" />
    <path
       sodipodi:type="arc"
       style="opacity:1;fill:#ffe28d;fill-opacity:1;fill-rule:nonzero;stroke:#000000;stroke-width:2;stroke-linecap:round;stroke-linejoin:miter;stroke-miterlimit:4;stroke-dasharray:none;stroke-dashoffset:0;stroke-opacity:1"
       id="path3191"
       sodipodi:cx="100.71429"
       sodipodi:cy="295.21933"
       sodipodi:rx="5.7142859"
       sodipodi:ry="5.7142859"
       d="M 106.42857,295.21933 A 5.7142859,5.7142859 0 1 1 95.000001,295.21933 A 5.7142859,5.7142859 0 1 1 106.42857,295.21933 z"
       transform="matrix(0.8565352,-0.5160889,0.5160889,0.8565352,-71.385494,37.301625)" />
    <path
       style="fill:none;fill-rule:evenodd;stroke:#000000;stroke-width:2;stroke-linecap:butt;stroke-linejoin:miter;stroke-miterlimit:4;stroke-dasharray:none;stroke-opacity:1"
       d="M 301.42857,197.36218 L 278.57143,208.79075"
       id="path3195"
       sodipodi:nodetypes="cc" />
    <path
       style="fill:none;fill-rule:evenodd;stroke:#000000;stroke-width:2;stroke-linecap:butt;stroke-linejoin:miter;stroke-miterlimit:4;stroke-dasharray:none;stroke-opacity:1"
       d="M 308.57144,203.79075 L 288.57144,229.50504"
       id="path3197"
       sodipodi:nodetypes="cc" />
    <path
       style="fill:none;fill-rule:evenodd;stroke:#000000;stroke-width:2;stroke-linecap:butt;stroke-linejoin:miter;stroke-miterlimit:4;stroke-dasharray:none;stroke-opacity:1"
       d="M 300.71429,204.50503 L 282.14286,221.64789"
       id="path3199"
       sodipodi:nodetypes="cc" />
    <path
       style="fill:#ffffff;fill-opacity:1;fill-rule:evenodd;stroke:#000000;stroke-width:2;stroke-linecap:butt;stroke-linejoin:miter;stroke-miterlimit:4;stroke-dasharray:none;stroke-opacity:1"
       d="M 250.71429,220.93361 C 250.71429,220.93361 242.29958,204.51483 253.57143,205.21932 C 265.00001,205.93361 263.57143,220.93361 263.57143,220.93361 C 263.57143,220.93361 265.00001,206.6479 275.00001,213.07647 C 285.00001,219.50504 270.00001,229.50505 270.00001,229.50505 C 270.00001,229.50505 282.85715,227.36218 281.42858,238.79075 C 279.92243,250.83984 272.85715,245.93361 272.85715,245.93361 C 272.85715,245.93361 284.28572,250.93361 273.57144,256.64789 C 263.48741,262.02604 262.14286,248.79075 262.14286,248.79075 C 262.14286,248.79075 261.42857,259.50504 252.14286,255.21932 C 242.85715,250.93361 252.14287,240.93361 252.14287,240.93361 C 252.14287,240.93361 240.71429,251.6479 236.42858,240.21933 C 231.98435,228.36805 247.14286,230.93361 247.14286,230.93361 C 247.14286,230.93361 227.85715,232.36218 234.28572,220.21932 C 240.71429,208.07646 251.42857,222.36218 250.71429,220.93361 z"
       id="path3193"
       sodipodi:nodetypes="cscscscscscscsc" />
    <path
       style="fill:none;fill-rule:evenodd;stroke:#000000;stroke-width:2;stroke-linecap:butt;stroke-linejoin:miter;stroke-miterlimit:4;stroke-dasharray:none;stroke-opacity:1"
       d="M 161.42858,583.07648 L 240.00001,583.07647 C 240.00001,583.07647 251.43058,538.86249 201.42858,540.21933 C 154.21902,541.48101 162.14286,583.07648 161.42858,583.07648 z"
       id="path3201"
       sodipodi:nodetypes="ccsc" />
    <path
       sodipodi:type="arc"
       style="opacity:1;fill:#ffe28d;fill-opacity:1;fill-rule:nonzero;stroke:#000000;stroke-width:2;stroke-linecap:round;stroke-linejoin:miter;stroke-miterlimit:4;stroke-dasharray:none;stroke-dashoffset:0;stroke-opacity:1"
       id="path3203"
       sodipodi:cx="135.35715"
       sodipodi:cy="189.1479"
       sodipodi:rx="34.642857"
       sodipodi:ry="34.642857"
       d="M 170,189.1479 A 34.642857,34.642857 0 1 1 100.71429,189.1479 A 34.642857,34.642857 0 1 1 170,189.1479 z"
       transform="translate(65.000005,337.85715)" />
    <path
       style="fill:#ff4d00;fill-opacity:1;fill-rule:evenodd;stroke:#000000;stroke-width:2.08934402;stroke-linecap:butt;stroke-linejoin:miter;stroke-miterlimit:4;stroke-dasharray:none;stroke-opacity:1"
       d="M 206.25343,507.36272 L 225.88713,515.92152 L 220.30562,501.65683 L 241.3839,503.0833 L 230.45442,491.67155 L 234.35781,477.40686 L 214.84088,485.25244 L 200.78869,480.2598 L 194.54327,489.53184 L 179.7104,480.97303 L 178.14905,495.23772 L 153.16739,500.23037 L 164.09687,507.36272 L 150.04468,519.4877 L 164.87755,518.06123 L 162.53551,538.0318 L 176.5877,516.63476 L 181.27176,528.04651 L 189.07853,510.92888 L 207.48283,520.20094 L 206.25343,507.36272 z"
       id="path3207"
       sodipodi:nodetypes="ccccccccccccccccccccc" />
    <path
       style="fill:#8dbbff;fill-opacity:1;fill-rule:evenodd;stroke:#000000;stroke-width:2;stroke-linecap:butt;stroke-linejoin:miter;stroke-miterlimit:4;stroke-dasharray:none;stroke-opacity:1"
       d="M 161.42858,583.79076 L 175.00001,601.6479 L 226.42858,601.6479 L 239.28572,582.36219 L 161.42858,583.79076 z"
       id="path3211" />
    <path
       sodipodi:type="arc"
       style="opacity:1;fill:#ffe28d;fill-opacity:1;fill-rule:nonzero;stroke:#000000;stroke-width:2;stroke-linecap:round;stroke-linejoin:miter;stroke-miterlimit:4;stroke-dasharray:none;stroke-dashoffset:0;stroke-opacity:1"
       id="path3213"
       sodipodi:cx="112.85714"
       sodipodi:cy="302.36218"
       sodipodi:rx="11.428572"
       sodipodi:ry="11.428572"
       d="M 124.28571,302.36218 A 11.428572,11.428572 0 1 1 101.42857,302.36218 A 11.428572,11.428572 0 1 1 124.28571,302.36218 z"
       transform="matrix(-0.3917725,-0.9200622,0.9200622,-0.3917725,-46.809498,791.46384)" />
    <path
       sodipodi:type="arc"
       style="opacity:1;fill:#ffe28d;fill-opacity:1;fill-rule:nonzero;stroke:#000000;stroke-width:2;stroke-linecap:round;stroke-linejoin:miter;stroke-miterlimit:4;stroke-dasharray:none;stroke-dashoffset:0;stroke-opacity:1"
       id="path3215"
       sodipodi:cx="100.71429"
       sodipodi:cy="295.21933"
       sodipodi:rx="5.7142859"
       sodipodi:ry="5.7142859"
       d="M 106.42857,295.21933 A 5.7142859,5.7142859 0 1 1 95.000001,295.21933 A 5.7142859,5.7142859 0 1 1 106.42857,295.21933 z"
       transform="matrix(-0.3917725,-0.9200622,0.9200622,-0.3917725,-46.809498,791.46384)" />
    <path
       style="fill:none;fill-rule:evenodd;stroke:#000000;stroke-width:2;stroke-linecap:butt;stroke-linejoin:miter;stroke-miterlimit:4;stroke-dasharray:none;stroke-opacity:1"
       d="M 226.81514,531.68037 L 212.673,529.66006 L 225.80499,519.55853"
       id="path3235"
       sodipodi:nodetypes="ccc" />
    <rect
       style="opacity:1;fill:#6c6c6c;fill-opacity:1;fill-rule:nonzero;stroke:#000000;stroke-width:2;stroke-linecap:round;stroke-linejoin:miter;stroke-miterlimit:4;stroke-dasharray:none;stroke-dashoffset:0;stroke-opacity:1"
       id="rect3217"
       width="83.571434"
       height="22.142859"
       x="-288.436"
       y="535.20007"
       transform="matrix(0.7103483,-0.7038503,0.7038503,0.7103483,0,0)" />
    <path
       sodipodi:type="arc"
       style="opacity:1;fill:#ffe28d;fill-opacity:1;fill-rule:nonzero;stroke:#000000;stroke-width:2;stroke-linecap:round;stroke-linejoin:miter;stroke-miterlimit:4;stroke-dasharray:none;stroke-dashoffset:0;stroke-opacity:1"
       id="path3219"
       sodipodi:cx="112.85714"
       sodipodi:cy="302.36218"
       sodipodi:rx="11.428572"
       sodipodi:ry="11.428572"
       d="M 124.28571,302.36218 A 11.428572,11.428572 0 1 1 101.42857,302.36218 A 11.428572,11.428572 0 1 1 124.28571,302.36218 z"
       transform="matrix(0.7103483,-0.7038505,0.7038505,0.7103483,-69.827862,430.1518)" />
    <path
       sodipodi:type="arc"
       style="opacity:1;fill:#ffe28d;fill-opacity:1;fill-rule:nonzero;stroke:#000000;stroke-width:2;stroke-linecap:round;stroke-linejoin:miter;stroke-miterlimit:4;stroke-dasharray:none;stroke-dashoffset:0;stroke-opacity:1"
       id="path3221"
       sodipodi:cx="100.71429"
       sodipodi:cy="295.21933"
       sodipodi:rx="5.7142859"
       sodipodi:ry="5.7142859"
       d="M 106.42857,295.21933 A 5.7142859,5.7142859 0 1 1 95.000001,295.21933 A 5.7142859,5.7142859 0 1 1 106.42857,295.21933 z"
       transform="matrix(0.7103483,-0.7038505,0.7038505,0.7103483,-69.827862,430.1518)" />
    <path
       style="fill:none;fill-rule:evenodd;stroke:#000000;stroke-width:2;stroke-linecap:butt;stroke-linejoin:miter;stroke-miterlimit:4;stroke-dasharray:none;stroke-opacity:1"
       d="M 254.35949,526.80032 L 274.88268,511.57338"
       id="path3223"
       sodipodi:nodetypes="cc" />
    <path
       style="fill:none;fill-rule:evenodd;stroke:#000000;stroke-width:2;stroke-linecap:butt;stroke-linejoin:miter;stroke-miterlimit:4;stroke-dasharray:none;stroke-opacity:1"
       d="M 246.20811,521.71091 L 261.43496,492.91217"
       id="path3225"
       sodipodi:nodetypes="cc" />
    <path
       style="fill:none;fill-rule:evenodd;stroke:#000000;stroke-width:2;stroke-linecap:butt;stroke-linejoin:miter;stroke-miterlimit:4;stroke-dasharray:none;stroke-opacity:1"
       d="M 253.82157,519.64203 L 269.13119,499.53255"
       id="path3227"
       sodipodi:nodetypes="cc" />
    <path
       style="fill:#ffffff;fill-opacity:1;fill-rule:evenodd;stroke:#000000;stroke-width:2;stroke-linecap:butt;stroke-linejoin:miter;stroke-miterlimit:4;stroke-dasharray:none;stroke-opacity:1"
       d="M 300.20565,494.77408 C 300.20565,494.77408 311.34569,509.48065 300.12293,510.74578 C 288.74412,512.0285 287.54415,497.00848 287.54415,497.00848 C 287.54415,497.00848 288.61999,511.32508 277.65495,506.73221 C 266.68992,502.13933 279.72379,489.68468 279.72379,489.68468 C 279.72379,489.68468 267.4347,494.02935 266.85539,482.52642 C 266.24464,470.39893 274.05505,474.00264 274.05505,474.00264 C 274.05505,474.00264 261.93145,471.06487 271.48963,463.57553 C 280.48556,456.52675 284.10977,469.32697 284.10977,469.32697 C 284.10977,469.32697 282.95118,458.65159 292.8404,461.25835 C 302.72961,463.86511 295.32306,475.32668 295.32306,475.32668 C 295.32306,475.32668 304.71573,462.78929 310.92237,473.29915 C 317.35857,484.19774 301.98486,484.30558 301.98486,484.30558 C 301.98486,484.30558 320.72884,479.54713 316.50836,492.62242 C 312.28789,505.69771 299.25397,493.49138 300.20565,494.77408 z"
       id="path3229"
       sodipodi:nodetypes="cscscscscscscsc" />
    <path
       style="fill:none;fill-rule:evenodd;stroke:#000000;stroke-width:2;stroke-linecap:butt;stroke-linejoin:miter;stroke-miterlimit:4;stroke-dasharray:none;stroke-opacity:1"
       d="M 188.93442,531.68037 L 203.07655,529.66006 L 189.94457,519.55853"
       id="path3233"
       sodipodi:nodetypes="ccc" />
    <path
       sodipodi:type="arc"
       style="opacity:1;fill:#000000;fill-opacity:1;fill-rule:nonzero;stroke:#000000;stroke-width:2;stroke-linecap:round;stroke-linejoin:miter;stroke-miterlimit:4;stroke-dasharray:none;stroke-dashoffset:0;stroke-opacity:1"
       id="path3237"
       sodipodi:cx="87.5"
       sodipodi:cy="263.43362"
       sodipodi:rx="3.2142856"
       sodipodi:ry="8.2142859"
       d="M 90.714286,263.43362 A 3.2142856,8.2142859 0 1 1 84.285714,263.43362 A 3.2142856,8.2142859 0 1 1 90.714286,263.43362 z"
       transform="translate(253.75001,-37.321436)" />
    <path
       sodipodi:type="arc"
       style="opacity:1;fill:#000000;fill-opacity:1;fill-rule:nonzero;stroke:#000000;stroke-width:2;stroke-linecap:round;stroke-linejoin:miter;stroke-miterlimit:4;stroke-dasharray:none;stroke-dashoffset:0;stroke-opacity:1"
       id="path3239"
       sodipodi:cx="87.5"
       sodipodi:cy="263.43362"
       sodipodi:rx="3.2142856"
       sodipodi:ry="8.2142859"
       d="M 90.714286,263.43362 A 3.2142856,8.2142859 0 1 1 84.285714,263.43362 A 3.2142856,8.2142859 0 1 1 90.714286,263.43362 z"
       transform="translate(274.10715,-37.678593)" />
    <path
       style="fill:none;fill-rule:evenodd;stroke:#000000;stroke-width:2;stroke-linecap:butt;stroke-linejoin:miter;stroke-miterlimit:4;stroke-dasharray:none;stroke-opacity:1"
       d="M 369.65464,254.85167 L 355.5125,252.83136 L 368.64449,242.72983"
       id="path3241"
       sodipodi:nodetypes="ccc" />
    <path
       style="fill:none;fill-rule:evenodd;stroke:#000000;stroke-width:2;stroke-linecap:butt;stroke-linejoin:miter;stroke-miterlimit:4;stroke-dasharray:none;stroke-opacity:1"
       d="M 331.77392,254.85167 L 345.91605,252.83136 L 332.78407,242.72983"
       id="path3243"
       sodipodi:nodetypes="ccc" />
    <path
       style="fill:#dedede;fill-opacity:1;fill-rule:evenodd;stroke:#000000;stroke-width:1px;stroke-linecap:butt;stroke-linejoin:miter;stroke-opacity:1"
       d="M 410.96429,227.00503 L 429.53572,209.86217 L 445.25,212.71932 L 434.53572,224.86217 L 448.10715,213.4336 L 463.82143,212.71932 L 453.82143,225.57646 L 468.82143,212.71932 C 468.82143,212.71932 488.82143,220.57646 497.39286,220.57646 C 505.96429,220.57646 507.39286,219.86217 507.39286,219.86217 C 507.39286,219.86217 500.96429,229.86218 495.25,236.29075 C 491.42409,240.59489 486.67857,247.71931 486.67857,247.71931 L 464.53572,252.00503 L 455.25,239.14789 L 460.25,253.4336 L 439.53572,252.00503 L 435.25,237.00503 L 434.53572,252.71931 L 414.53572,246.29074 L 410.96429,227.00503 z"
       id="path3269"
       sodipodi:nodetypes="ccccccccscsccccccccc" />
    <path
       style="fill:none;fill-rule:evenodd;stroke:#000000;stroke-width:2;stroke-linecap:butt;stroke-linejoin:miter;stroke-miterlimit:4;stroke-dasharray:none;stroke-opacity:1"
       d="M 390.25,222.00503 L 390.25,222.00503 C 390.25,222.00503 450.25,240.57646 475.25,232.00503"
       id="path3271" />
    <path
       style="fill:none;fill-rule:evenodd;stroke:#000000;stroke-width:1px;stroke-linecap:butt;stroke-linejoin:miter;stroke-opacity:1"
       d="M 435.96429,211.29075 L 425.25,222.71932"
       id="path3273" />
    <path
       style="fill:none;fill-rule:evenodd;stroke:#000000;stroke-width:1px;stroke-linecap:butt;stroke-linejoin:miter;stroke-opacity:1"
       d="M 474.53572,215.57646 L 461.67857,227.00503"
       id="path3275" />
    <path
       style="fill:none;fill-rule:evenodd;stroke:#000000;stroke-width:1px;stroke-linecap:butt;stroke-linejoin:miter;stroke-opacity:1"
       d="M 449.53572,252.71931 L 444.53572,237.00503"
       id="path3277" />
    <path
       style="fill:none;fill-rule:evenodd;stroke:#000000;stroke-width:1px;stroke-linecap:butt;stroke-linejoin:miter;stroke-opacity:1"
       d="M 420.96429,247.71931 L 418.82143,236.29075"
       id="path3279" />
    <path
       style="fill:none;fill-rule:evenodd;stroke:#000000;stroke-width:1px;stroke-linecap:butt;stroke-linejoin:miter;stroke-opacity:1"
       d="M 477.39286,248.4336 L 467.39286,239.86217"
       id="path3281" />
    <path
       style="fill:none;fill-rule:evenodd;stroke:#000000;stroke-width:1px;stroke-linecap:butt;stroke-linejoin:miter;stroke-opacity:1"
       d="M 452.39286,212.71932 L 445.96429,220.57646"
       id="path3283" />
    <path
       style="fill:none;fill-rule:evenodd;stroke:#000000;stroke-width:1px;stroke-linecap:butt;stroke-linejoin:miter;stroke-opacity:1"
       d="M 429.53572,251.29074 L 426.67857,237.71932"
       id="path3285" />
    <path
       style="fill:none;fill-rule:evenodd;stroke:#000000;stroke-width:2;stroke-linecap:butt;stroke-linejoin:miter;stroke-miterlimit:4;stroke-dasharray:none;stroke-opacity:1"
       d="M 483.04818,583.79076 L 561.61961,583.79075 C 561.61961,583.79075 573.05018,539.57677 523.04818,540.93361 C 475.83862,542.19529 483.76246,583.79076 483.04818,583.79076 z"
       id="path3388"
       sodipodi:nodetypes="ccsc" />
    <path
       sodipodi:type="arc"
       style="opacity:1;fill:#ffe28d;fill-opacity:1;fill-rule:nonzero;stroke:#000000;stroke-width:2;stroke-linecap:round;stroke-linejoin:miter;stroke-miterlimit:4;stroke-dasharray:none;stroke-dashoffset:0;stroke-opacity:1"
       id="path3390"
       sodipodi:cx="135.35715"
       sodipodi:cy="189.1479"
       sodipodi:rx="34.642857"
       sodipodi:ry="34.642857"
       d="M 170,189.1479 A 34.642857,34.642857 0 1 1 100.71429,189.1479 A 34.642857,34.642857 0 1 1 170,189.1479 z"
       transform="translate(386.61961,338.57143)" />
    <path
       style="fill:#ff4d00;fill-opacity:1;fill-rule:evenodd;stroke:#000000;stroke-width:2.08934402;stroke-linecap:butt;stroke-linejoin:miter;stroke-miterlimit:4;stroke-dasharray:none;stroke-opacity:1"
       d="M 527.87303,508.077 L 547.50673,516.6358 L 541.92522,502.37111 L 563.0035,503.79758 L 552.07402,492.38583 L 555.97741,478.12114 L 536.46048,485.96672 L 522.40829,480.97408 L 516.16287,490.24612 L 501.33,481.68731 L 499.76865,495.952 L 474.78699,500.94465 L 485.71647,508.077 L 471.66428,520.20198 L 486.49715,518.77551 L 484.15511,538.74608 L 498.2073,517.34904 L 502.89136,528.76079 L 510.69813,511.64316 L 529.10243,520.91522 L 527.87303,508.077 z"
       id="path3392"
       sodipodi:nodetypes="ccccccccccccccccccccc" />
    <path
       style="fill:#8dbbff;fill-opacity:1;fill-rule:evenodd;stroke:#000000;stroke-width:2;stroke-linecap:butt;stroke-linejoin:miter;stroke-miterlimit:4;stroke-dasharray:none;stroke-opacity:1"
       d="M 483.04818,584.50504 L 496.61961,602.36218 L 548.04818,602.36218 L 560.90532,583.07647 L 483.04818,584.50504 z"
       id="path3394" />
    <path
       sodipodi:type="arc"
       style="opacity:1;fill:#ffe28d;fill-opacity:1;fill-rule:nonzero;stroke:#000000;stroke-width:2;stroke-linecap:round;stroke-linejoin:miter;stroke-miterlimit:4;stroke-dasharray:none;stroke-dashoffset:0;stroke-opacity:1"
       id="path3396"
       sodipodi:cx="112.85714"
       sodipodi:cy="302.36218"
       sodipodi:rx="11.428572"
       sodipodi:ry="11.428572"
       d="M 124.28571,302.36218 A 11.428572,11.428572 0 1 1 101.42857,302.36218 A 11.428572,11.428572 0 1 1 124.28571,302.36218 z"
       transform="matrix(-0.3917725,-0.9200622,0.9200622,-0.3917725,274.81011,792.17812)" />
    <path
       sodipodi:type="arc"
       style="opacity:1;fill:#ffe28d;fill-opacity:1;fill-rule:nonzero;stroke:#000000;stroke-width:2;stroke-linecap:round;stroke-linejoin:miter;stroke-miterlimit:4;stroke-dasharray:none;stroke-dashoffset:0;stroke-opacity:1"
       id="path3398"
       sodipodi:cx="100.71429"
       sodipodi:cy="295.21933"
       sodipodi:rx="5.7142859"
       sodipodi:ry="5.7142859"
       d="M 106.42857,295.21933 A 5.7142859,5.7142859 0 1 1 95.000001,295.21933 A 5.7142859,5.7142859 0 1 1 106.42857,295.21933 z"
       transform="matrix(-0.3917725,-0.9200622,0.9200622,-0.3917725,274.81011,792.17812)" />
    <path
       style="fill:none;fill-rule:evenodd;stroke:#000000;stroke-width:2;stroke-linecap:butt;stroke-linejoin:miter;stroke-miterlimit:4;stroke-dasharray:none;stroke-opacity:1"
       d="M 548.43474,532.39465 L 534.2926,530.37434 L 547.42459,520.27281"
       id="path3400"
       sodipodi:nodetypes="ccc" />
    <rect
       style="opacity:1;fill:#6c6c6c;fill-opacity:1;fill-rule:nonzero;stroke:#000000;stroke-width:2;stroke-linecap:round;stroke-linejoin:miter;stroke-miterlimit:4;stroke-dasharray:none;stroke-dashoffset:0;stroke-opacity:1"
       id="rect3402"
       width="83.571434"
       height="22.142859"
       x="-60.476803"
       y="762.07947"
       transform="matrix(0.7103483,-0.7038503,0.7038503,0.7103483,0,0)" />
    <path
       sodipodi:type="arc"
       style="opacity:1;fill:#ffe28d;fill-opacity:1;fill-rule:nonzero;stroke:#000000;stroke-width:2;stroke-linecap:round;stroke-linejoin:miter;stroke-miterlimit:4;stroke-dasharray:none;stroke-dashoffset:0;stroke-opacity:1"
       id="path3404"
       sodipodi:cx="112.85714"
       sodipodi:cy="302.36218"
       sodipodi:rx="11.428572"
       sodipodi:ry="11.428572"
       d="M 124.28571,302.36218 A 11.428572,11.428572 0 1 1 101.42857,302.36218 A 11.428572,11.428572 0 1 1 124.28571,302.36218 z"
       transform="matrix(0.7103483,-0.7038505,0.7038505,0.7103483,251.79174,430.86608)" />
    <path
       sodipodi:type="arc"
       style="opacity:1;fill:#ffe28d;fill-opacity:1;fill-rule:nonzero;stroke:#000000;stroke-width:2;stroke-linecap:round;stroke-linejoin:miter;stroke-miterlimit:4;stroke-dasharray:none;stroke-dashoffset:0;stroke-opacity:1"
       id="path3406"
       sodipodi:cx="100.71429"
       sodipodi:cy="295.21933"
       sodipodi:rx="5.7142859"
       sodipodi:ry="5.7142859"
       d="M 106.42857,295.21933 A 5.7142859,5.7142859 0 1 1 95.000001,295.21933 A 5.7142859,5.7142859 0 1 1 106.42857,295.21933 z"
       transform="matrix(0.7103483,-0.7038505,0.7038505,0.7103483,251.79174,430.86608)" />
    <path
       style="fill:none;fill-rule:evenodd;stroke:#000000;stroke-width:2;stroke-linecap:butt;stroke-linejoin:miter;stroke-miterlimit:4;stroke-dasharray:none;stroke-opacity:1"
       d="M 510.55402,532.39465 L 524.69615,530.37434 L 511.56417,520.27281"
       id="path3408"
       sodipodi:nodetypes="ccc" />
    <path
       sodipodi:type="arc"
       style="opacity:1;fill:none;fill-opacity:1;fill-rule:nonzero;stroke:#000000;stroke-width:2;stroke-linecap:round;stroke-linejoin:miter;stroke-miterlimit:4;stroke-dasharray:2, 4;stroke-dashoffset:0;stroke-opacity:1"
       id="path3418"
       sodipodi:cx="615.71429"
       sodipodi:cy="389.86218"
       sodipodi:rx="67.85714"
       sodipodi:ry="9.6428576"
       d="M 683.57143,389.86218 A 67.85714,9.6428576 0 1 1 547.85715,389.86218 A 67.85714,9.6428576 0 1 1 683.57143,389.86218 z"
       transform="matrix(0.4961666,0.5285888,-0.5566391,0.4375374,537.58706,-21.891138)" />
    <path
       sodipodi:type="arc"
       style="opacity:1;fill:none;fill-opacity:1;fill-rule:nonzero;stroke:#000000;stroke-width:2;stroke-linecap:round;stroke-linejoin:miter;stroke-miterlimit:4;stroke-dasharray:2, 4;stroke-dashoffset:0;stroke-opacity:1"
       id="path3420"
       sodipodi:cx="615.71429"
       sodipodi:cy="389.86218"
       sodipodi:rx="67.85714"
       sodipodi:ry="9.6428576"
       d="M 683.57143,389.86218 A 67.85714,9.6428576 0 1 1 547.85715,389.86218 A 67.85714,9.6428576 0 1 1 683.57143,389.86218 z"
       transform="matrix(0.3536437,0.3767527,-0.3967456,0.3118556,548.36119,130.37184)" />
    <path
       sodipodi:type="arc"
       style="opacity:1;fill:none;fill-opacity:1;fill-rule:nonzero;stroke:#000000;stroke-width:2;stroke-linecap:round;stroke-linejoin:miter;stroke-miterlimit:4;stroke-dasharray:2, 4;stroke-dashoffset:0;stroke-opacity:1"
       id="path3422"
       sodipodi:cx="615.71429"
       sodipodi:cy="389.86218"
       sodipodi:rx="67.85714"
       sodipodi:ry="9.6428576"
       d="M 683.57143,389.86218 A 67.85714,9.6428576 0 1 1 547.85715,389.86218 A 67.85714,9.6428576 0 1 1 683.57143,389.86218 z"
       transform="matrix(0.274868,0.2928294,-0.3083688,0.2423884,551.8825,220.42202)" />
    <path
       sodipodi:type="arc"
       style="opacity:1;fill:none;fill-opacity:1;fill-rule:nonzero;stroke:#000000;stroke-width:2;stroke-linecap:round;stroke-linejoin:miter;stroke-miterlimit:4;stroke-dasharray:2, 4;stroke-dashoffset:0;stroke-opacity:1"
       id="path3424"
       sodipodi:cx="615.71429"
       sodipodi:cy="389.86218"
       sodipodi:rx="67.85714"
       sodipodi:ry="9.6428576"
       d="M 683.57143,389.86218 A 67.85714,9.6428576 0 1 1 547.85715,389.86218 A 67.85714,9.6428576 0 1 1 683.57143,389.86218 z"
       transform="matrix(0.1958505,0.2086484,-0.2197206,0.1727079,555.42997,307.83892)" />
    <path
       sodipodi:type="arc"
       style="opacity:1;fill:none;fill-opacity:1;fill-rule:nonzero;stroke:#000000;stroke-width:2;stroke-linecap:round;stroke-linejoin:miter;stroke-miterlimit:4;stroke-dasharray:2, 4;stroke-dashoffset:0;stroke-opacity:1"
       id="path3426"
       sodipodi:cx="615.71429"
       sodipodi:cy="389.86218"
       sodipodi:rx="67.85714"
       sodipodi:ry="9.6428576"
       d="M 683.57143,389.86218 A 67.85714,9.6428576 0 1 1 547.85715,389.86218 A 67.85714,9.6428576 0 1 1 683.57143,389.86218 z"
       transform="matrix(0.1296791,0.138153,-0.1454843,0.1143557,559.7307,382.65231)" />
    <path
       sodipodi:type="arc"
       style="opacity:1;fill:url(#radialGradient3446);fill-opacity:1;fill-rule:nonzero;stroke:#000000;stroke-width:2.35768020999999980;stroke-linecap:round;stroke-linejoin:miter;stroke-miterlimit:4;stroke-dasharray:none;stroke-dashoffset:0;stroke-opacity:1"
       id="path3434"
       sodipodi:cx="549.64288"
       sodipodi:cy="231.29076"
       sodipodi:rx="23.214285"
       sodipodi:ry="21.785715"
       d="M 572.85717,231.29076 A 23.214285,21.785715 0 1 1 526.4286,231.29076 A 23.214285,21.785715 0 1 1 572.85717,231.29076 z"
       transform="matrix(0.8373044,0,0,0.8594227,85.495928,29.299946)" />
    <path
       sodipodi:type="arc"
       style="opacity:1;fill:#6b2b00;fill-opacity:1;fill-rule:nonzero;stroke:none;stroke-width:2;stroke-linecap:round;stroke-linejoin:miter;stroke-miterlimit:4;stroke-dasharray:none;stroke-dashoffset:0;stroke-opacity:1"
       id="path3452"
       sodipodi:cx="540.35712"
       sodipodi:cy="221.82646"
       sodipodi:rx="2.5"
       sodipodi:ry="7.3214288"
       d="M 542.85712,221.82646 A 2.5,7.3214288 0 1 1 537.85712,221.82646 A 2.5,7.3214288 0 1 1 542.85712,221.82646 z"
       transform="translate(0.7142857,9.2857143)" />
    <path
       sodipodi:type="arc"
       style="opacity:1;fill:#6b2b00;fill-opacity:1;fill-rule:nonzero;stroke:none;stroke-width:2;stroke-linecap:round;stroke-linejoin:miter;stroke-miterlimit:4;stroke-dasharray:none;stroke-dashoffset:0;stroke-opacity:1"
       id="path3454"
       sodipodi:cx="540.35712"
       sodipodi:cy="221.82646"
       sodipodi:rx="2.5"
       sodipodi:ry="7.3214288"
       d="M 542.85712,221.82646 A 2.5,7.3214288 0 1 1 537.85712,221.82646 A 2.5,7.3214288 0 1 1 542.85712,221.82646 z"
       transform="translate(10.35717,9.1071481)" />
    <path
       style="fill:none;fill-opacity:1;fill-rule:evenodd;stroke:#6b2b00;stroke-width:1px;stroke-linecap:butt;stroke-linejoin:miter;stroke-opacity:1"
       d="M 547.1874,224.57214 L 553.52688,218.3665"
       id="path3456" />
    <path
       style="fill:none;fill-opacity:1;fill-rule:evenodd;stroke:#6b2b00;stroke-width:1px;stroke-linecap:butt;stroke-linejoin:miter;stroke-opacity:1"
       d="M 544.59831,224.75072 L 538.25883,218.54508"
       id="path3460" />
    <path
       style="fill:url(#radialGradient3474);fill-opacity:1;fill-rule:evenodd;stroke:#000000;stroke-width:2;stroke-linecap:butt;stroke-linejoin:miter;stroke-miterlimit:4;stroke-dasharray:none;stroke-opacity:1"
       d="M 587.43001,221.63739 C 587.43001,221.63739 591.00145,214.49453 594.57287,215.20882 C 598.1443,215.9231 599.75145,215.9231 601.53716,218.78025 C 603.32288,221.63739 610.6443,219.13739 611.00145,223.78024 C 611.35859,228.4231 612.07287,236.28024 607.43002,237.35167 C 602.78716,238.4231 600.6443,240.9231 595.28716,241.99453 C 589.93002,243.06596 585.28716,239.85167 584.21573,237.35167 C 583.1443,234.85167 578.50145,237.70882 577.07287,233.06596 C 575.6443,228.4231 586.35859,222.35167 587.43001,221.63739 z"
       id="path3464"
       sodipodi:nodetypes="csssssssc" />
  </g>
</svg>
