<?xml version="1.0" encoding="UTF-8" standalone="no"?>
<!-- Created with Inkscape (http://www.inkscape.org/) -->
<svg
   xmlns:dc="http://purl.org/dc/elements/1.1/"
   xmlns:cc="http://creativecommons.org/ns#"
   xmlns:rdf="http://www.w3.org/1999/02/22-rdf-syntax-ns#"
   xmlns:svg="http://www.w3.org/2000/svg"
   xmlns="http://www.w3.org/2000/svg"
   xmlns:sodipodi="http://sodipodi.sourceforge.net/DTD/sodipodi-0.dtd"
   xmlns:inkscape="http://www.inkscape.org/namespaces/inkscape"
   width="744.09448819"
   height="1052.3622047"
   id="svg2"
   sodipodi:version="0.32"
   inkscape:version="0.46"
   sodipodi:docname="feather.svg"
   inkscape:output_extension="org.inkscape.output.svg.inkscape">
  <defs
     id="defs4">
    <inkscape:perspective
       sodipodi:type="inkscape:persp3d"
       inkscape:vp_x="0 : 526.18109 : 1"
       inkscape:vp_y="0 : 1000 : 0"
       inkscape:vp_z="744.09448 : 526.18109 : 1"
       inkscape:persp3d-origin="372.04724 : 350.78739 : 1"
       id="perspective10" />
  </defs>
  <sodipodi:namedview
     id="base"
     pagecolor="#ffffff"
     bordercolor="#666666"
     borderopacity="1.0"
     gridtolerance="10000"
     guidetolerance="10"
     objecttolerance="10"
     inkscape:pageopacity="0.0"
     inkscape:pageshadow="2"
     inkscape:zoom="1.4"
     inkscape:cx="299.33463"
     inkscape:cy="690.5448"
     inkscape:document-units="px"
     inkscape:current-layer="layer1"
     showgrid="false"
     inkscape:window-width="1280"
     inkscape:window-height="952"
     inkscape:window-x="-4"
     inkscape:window-y="-4" />
  <metadata
     id="metadata7">
    <rdf:RDF>
      <cc:Work
         rdf:about="">
        <dc:format>image/svg+xml</dc:format>
        <dc:type
           rdf:resource="http://purl.org/dc/dcmitype/StillImage" />
      </cc:Work>
    </rdf:RDF>
  </metadata>
  <g
     inkscape:label="Layer 1"
     inkscape:groupmode="layer"
     id="layer1">
    <path
       style="fill:none;fill-rule:evenodd;stroke:#000000;stroke-width:2;stroke-linecap:butt;stroke-linejoin:miter;stroke-opacity:1;stroke-miterlimit:4;stroke-dasharray:none"
       d="M 96.428574,245.21933 L 175,245.21932 C 175,245.21932 186.43057,201.00534 136.42857,202.36218 C 89.219016,203.62386 97.142854,245.21933 96.428574,245.21933 z"
       id="path3171"
       sodipodi:nodetypes="ccsc" />
    <path
       sodipodi:type="arc"
       style="opacity:1;fill:#ffe28d;fill-opacity:1;fill-rule:nonzero;stroke:#000000;stroke-width:2;stroke-linecap:round;stroke-linejoin:miter;stroke-miterlimit:4;stroke-dasharray:none;stroke-dashoffset:0;stroke-opacity:1"
       id="path3155"
       sodipodi:cx="135.35715"
       sodipodi:cy="189.1479"
       sodipodi:rx="34.642857"
       sodipodi:ry="34.642857"
       d="M 170,189.1479 A 34.642857,34.642857 0 1 1 100.71429,189.1479 A 34.642857,34.642857 0 1 1 170,189.1479 z" />
    <path
       sodipodi:type="arc"
       style="opacity:1;fill:#000000;fill-opacity:1;fill-rule:nonzero;stroke:#000000;stroke-width:2;stroke-linecap:round;stroke-linejoin:miter;stroke-miterlimit:4;stroke-dasharray:none;stroke-dashoffset:0;stroke-opacity:1"
       id="path3167"
       sodipodi:cx="87.5"
       sodipodi:cy="263.43362"
       sodipodi:rx="3.2142856"
       sodipodi:ry="8.2142859"
       d="M 90.714286,263.43362 A 3.2142856,8.2142859 0 1 1 84.285714,263.43362 A 3.2142856,8.2142859 0 1 1 90.714286,263.43362 z"
       transform="translate(45.714286,-77.142857)" />
    <path
       style="fill:#ff4d00;fill-opacity:1;fill-rule:evenodd;stroke:#000000;stroke-width:2.08934402;stroke-linecap:butt;stroke-linejoin:miter;stroke-miterlimit:4;stroke-dasharray:none;stroke-opacity:1"
       d="M 141.25342,169.50557 L 160.88712,178.06437 L 155.30561,163.79968 L 176.38389,165.22615 L 165.45441,153.8144 L 169.3578,139.54971 L 149.84087,147.39529 L 135.78868,142.40265 L 129.54326,151.67469 L 114.71039,143.11588 L 113.14904,157.38057 L 88.167381,162.37322 L 99.096863,169.50557 L 85.044672,181.63055 L 99.877543,180.20408 L 97.535505,200.17465 L 111.58769,178.77761 L 116.27175,190.18936 L 124.07852,173.07173 L 142.48282,182.34379 L 141.25342,169.50557 z"
       id="path3157"
       sodipodi:nodetypes="ccccccccccccccccccccc" />
    <path
       sodipodi:type="arc"
       style="opacity:1;fill:#000000;fill-opacity:1;fill-rule:nonzero;stroke:#000000;stroke-width:2;stroke-linecap:round;stroke-linejoin:miter;stroke-miterlimit:4;stroke-dasharray:none;stroke-dashoffset:0;stroke-opacity:1"
       id="path3169"
       sodipodi:cx="87.5"
       sodipodi:cy="263.43362"
       sodipodi:rx="3.2142856"
       sodipodi:ry="8.2142859"
       d="M 90.714286,263.43362 A 3.2142856,8.2142859 0 1 1 84.285714,263.43362 A 3.2142856,8.2142859 0 1 1 90.714286,263.43362 z"
       transform="translate(66.071429,-77.500014)" />
    <path
       style="fill:#8dbbff;fill-rule:evenodd;stroke:#000000;stroke-width:2;stroke-linecap:butt;stroke-linejoin:miter;stroke-opacity:1;stroke-miterlimit:4;stroke-dasharray:none;fill-opacity:1"
       d="M 96.428572,245.93361 L 110,263.79075 L 161.42857,263.79075 L 174.28571,244.50504 L 96.428572,245.93361 z"
       id="path3175" />
    <path
       sodipodi:type="arc"
       style="opacity:1;fill:#ffe28d;fill-opacity:1;fill-rule:nonzero;stroke:#000000;stroke-width:2;stroke-linecap:round;stroke-linejoin:miter;stroke-miterlimit:4;stroke-dasharray:none;stroke-dashoffset:0;stroke-opacity:1"
       id="path3181"
       sodipodi:cx="112.85714"
       sodipodi:cy="302.36218"
       sodipodi:rx="11.428572"
       sodipodi:ry="11.428572"
       d="M 124.28571,302.36218 A 11.428572,11.428572 0 1 1 101.42857,302.36218 A 11.428572,11.428572 0 1 1 124.28571,302.36218 z"
       transform="matrix(-0.1632975,-0.9865769,0.9865769,-0.1632975,-60.100246,389.53684)" />
    <path
       sodipodi:type="arc"
       style="opacity:1;fill:#ffe28d;fill-opacity:1;fill-rule:nonzero;stroke:#000000;stroke-width:2;stroke-linecap:round;stroke-linejoin:miter;stroke-miterlimit:4;stroke-dasharray:none;stroke-dashoffset:0;stroke-opacity:1"
       id="path3179"
       sodipodi:cx="100.71429"
       sodipodi:cy="295.21933"
       sodipodi:rx="5.7142859"
       sodipodi:ry="5.7142859"
       d="M 106.42857,295.21933 A 5.7142859,5.7142859 0 1 1 95.000001,295.21933 A 5.7142859,5.7142859 0 1 1 106.42857,295.21933 z"
       transform="matrix(-0.1632975,-0.9865769,0.9865769,-0.1632975,-60.100246,389.53684)" />
    <rect
       style="opacity:1;fill:#6c6c6c;fill-opacity:1;fill-rule:nonzero;stroke:#000000;stroke-width:1.99999976;stroke-linecap:round;stroke-linejoin:miter;stroke-miterlimit:4;stroke-dasharray:none;stroke-dashoffset:0;stroke-opacity:1"
       id="rect3187"
       width="83.571411"
       height="22.142853"
       x="49.373573"
       y="308.56683"
       transform="matrix(0.8565352,-0.5160887,0.5160887,0.8565352,0,0)" />
    <path
       sodipodi:type="arc"
       style="opacity:1;fill:#ffe28d;fill-opacity:1;fill-rule:nonzero;stroke:#000000;stroke-width:2;stroke-linecap:round;stroke-linejoin:miter;stroke-miterlimit:4;stroke-dasharray:none;stroke-dashoffset:0;stroke-opacity:1"
       id="path3189"
       sodipodi:cx="112.85714"
       sodipodi:cy="302.36218"
       sodipodi:rx="11.428572"
       sodipodi:ry="11.428572"
       d="M 124.28571,302.36218 A 11.428572,11.428572 0 1 1 101.42857,302.36218 A 11.428572,11.428572 0 1 1 124.28571,302.36218 z"
       transform="matrix(0.8565352,-0.5160889,0.5160889,0.8565352,2.9002204,33.015911)" />
    <path
       sodipodi:type="arc"
       style="opacity:1;fill:#ffe28d;fill-opacity:1;fill-rule:nonzero;stroke:#000000;stroke-width:2;stroke-linecap:round;stroke-linejoin:miter;stroke-miterlimit:4;stroke-dasharray:none;stroke-dashoffset:0;stroke-opacity:1"
       id="path3191"
       sodipodi:cx="100.71429"
       sodipodi:cy="295.21933"
       sodipodi:rx="5.7142859"
       sodipodi:ry="5.7142859"
       d="M 106.42857,295.21933 A 5.7142859,5.7142859 0 1 1 95.000001,295.21933 A 5.7142859,5.7142859 0 1 1 106.42857,295.21933 z"
       transform="matrix(0.8565352,-0.5160889,0.5160889,0.8565352,2.9002204,33.015911)" />
    <path
       style="fill:none;fill-rule:evenodd;stroke:#000000;stroke-width:2;stroke-linecap:butt;stroke-linejoin:miter;stroke-miterlimit:4;stroke-dasharray:none;stroke-opacity:1"
       d="M 375.71428,193.07647 L 352.85714,204.50504"
       id="path3195"
       sodipodi:nodetypes="cc" />
    <path
       style="fill:none;fill-rule:evenodd;stroke:#000000;stroke-width:2;stroke-linecap:butt;stroke-linejoin:miter;stroke-miterlimit:4;stroke-dasharray:none;stroke-opacity:1"
       d="M 382.85715,199.50504 L 362.85715,225.21933"
       id="path3197"
       sodipodi:nodetypes="cc" />
    <path
       style="fill:none;fill-rule:evenodd;stroke:#000000;stroke-width:2;stroke-linecap:butt;stroke-linejoin:miter;stroke-miterlimit:4;stroke-dasharray:none;stroke-opacity:1"
       d="M 375,200.21932 L 356.42857,217.36218"
       id="path3199"
       sodipodi:nodetypes="cc" />
    <path
       style="fill:#ffffff;fill-opacity:1;fill-rule:evenodd;stroke:#000000;stroke-width:2;stroke-linecap:butt;stroke-linejoin:miter;stroke-miterlimit:4;stroke-dasharray:none;stroke-opacity:1"
       d="M 325,216.6479 C 325,216.6479 316.58529,200.22912 327.85714,200.93361 C 339.28572,201.6479 337.85714,216.6479 337.85714,216.6479 C 337.85714,216.6479 339.28572,202.36219 349.28572,208.79076 C 359.28572,215.21933 344.28572,225.21934 344.28572,225.21934 C 344.28572,225.21934 357.14286,223.07647 355.71429,234.50504 C 354.20814,246.55413 347.14286,241.6479 347.14286,241.6479 C 347.14286,241.6479 358.57143,246.6479 347.85715,252.36218 C 337.77312,257.74033 336.42857,244.50504 336.42857,244.50504 C 336.42857,244.50504 335.71428,255.21933 326.42857,250.93361 C 317.14286,246.6479 326.42858,236.6479 326.42858,236.6479 C 326.42858,236.6479 315,247.36219 310.71429,235.93362 C 306.27006,224.08234 321.42857,226.6479 321.42857,226.6479 C 321.42857,226.6479 302.14286,228.07647 308.57143,215.93361 C 315,203.79075 325.71428,218.07647 325,216.6479 z"
       id="path3193"
       sodipodi:nodetypes="cscscscscscscsc" />
    <path
       style="fill:none;fill-rule:evenodd;stroke:#000000;stroke-width:2;stroke-linecap:butt;stroke-linejoin:miter;stroke-miterlimit:4;stroke-dasharray:none;stroke-opacity:1"
       d="M 161.42858,583.07648 L 240.00001,583.07647 C 240.00001,583.07647 251.43058,538.86249 201.42858,540.21933 C 154.21902,541.48101 162.14286,583.07648 161.42858,583.07648 z"
       id="path3201"
       sodipodi:nodetypes="ccsc" />
    <path
       sodipodi:type="arc"
       style="opacity:1;fill:#ffe28d;fill-opacity:1;fill-rule:nonzero;stroke:#000000;stroke-width:2;stroke-linecap:round;stroke-linejoin:miter;stroke-miterlimit:4;stroke-dasharray:none;stroke-dashoffset:0;stroke-opacity:1"
       id="path3203"
       sodipodi:cx="135.35715"
       sodipodi:cy="189.1479"
       sodipodi:rx="34.642857"
       sodipodi:ry="34.642857"
       d="M 170,189.1479 A 34.642857,34.642857 0 1 1 100.71429,189.1479 A 34.642857,34.642857 0 1 1 170,189.1479 z"
       transform="translate(65.000005,337.85715)" />
    <path
       style="fill:#ff4d00;fill-opacity:1;fill-rule:evenodd;stroke:#000000;stroke-width:2.08934402;stroke-linecap:butt;stroke-linejoin:miter;stroke-miterlimit:4;stroke-dasharray:none;stroke-opacity:1"
       d="M 206.25343,507.36272 L 225.88713,515.92152 L 220.30562,501.65683 L 241.3839,503.0833 L 230.45442,491.67155 L 234.35781,477.40686 L 214.84088,485.25244 L 200.78869,480.2598 L 194.54327,489.53184 L 179.7104,480.97303 L 178.14905,495.23772 L 153.16739,500.23037 L 164.09687,507.36272 L 150.04468,519.4877 L 164.87755,518.06123 L 162.53551,538.0318 L 176.5877,516.63476 L 181.27176,528.04651 L 189.07853,510.92888 L 207.48283,520.20094 L 206.25343,507.36272 z"
       id="path3207"
       sodipodi:nodetypes="ccccccccccccccccccccc" />
    <path
       style="fill:#8dbbff;fill-opacity:1;fill-rule:evenodd;stroke:#000000;stroke-width:2;stroke-linecap:butt;stroke-linejoin:miter;stroke-miterlimit:4;stroke-dasharray:none;stroke-opacity:1"
       d="M 161.42858,583.79076 L 175.00001,601.6479 L 226.42858,601.6479 L 239.28572,582.36219 L 161.42858,583.79076 z"
       id="path3211" />
    <path
       sodipodi:type="arc"
       style="opacity:1;fill:#ffe28d;fill-opacity:1;fill-rule:nonzero;stroke:#000000;stroke-width:2;stroke-linecap:round;stroke-linejoin:miter;stroke-miterlimit:4;stroke-dasharray:none;stroke-dashoffset:0;stroke-opacity:1"
       id="path3213"
       sodipodi:cx="112.85714"
       sodipodi:cy="302.36218"
       sodipodi:rx="11.428572"
       sodipodi:ry="11.428572"
       d="M 124.28571,302.36218 A 11.428572,11.428572 0 1 1 101.42857,302.36218 A 11.428572,11.428572 0 1 1 124.28571,302.36218 z"
       transform="matrix(-0.3917725,-0.9200622,0.9200622,-0.3917725,-46.809498,791.46384)" />
    <path
       sodipodi:type="arc"
       style="opacity:1;fill:#ffe28d;fill-opacity:1;fill-rule:nonzero;stroke:#000000;stroke-width:2;stroke-linecap:round;stroke-linejoin:miter;stroke-miterlimit:4;stroke-dasharray:none;stroke-dashoffset:0;stroke-opacity:1"
       id="path3215"
       sodipodi:cx="100.71429"
       sodipodi:cy="295.21933"
       sodipodi:rx="5.7142859"
       sodipodi:ry="5.7142859"
       d="M 106.42857,295.21933 A 5.7142859,5.7142859 0 1 1 95.000001,295.21933 A 5.7142859,5.7142859 0 1 1 106.42857,295.21933 z"
       transform="matrix(-0.3917725,-0.9200622,0.9200622,-0.3917725,-46.809498,791.46384)" />
    <path
       style="fill:none;fill-rule:evenodd;stroke:#000000;stroke-width:2;stroke-linecap:butt;stroke-linejoin:miter;stroke-miterlimit:4;stroke-dasharray:none;stroke-opacity:1"
       d="M 226.81514,531.68037 L 212.673,529.66006 L 225.80499,519.55853"
       id="path3235"
       sodipodi:nodetypes="ccc" />
    <rect
       style="opacity:1;fill:#6c6c6c;fill-opacity:1;fill-rule:nonzero;stroke:#000000;stroke-width:2;stroke-linecap:round;stroke-linejoin:miter;stroke-miterlimit:4;stroke-dasharray:none;stroke-dashoffset:0;stroke-opacity:1"
       id="rect3217"
       width="83.571434"
       height="22.142859"
       x="-288.436"
       y="535.20007"
       transform="matrix(0.7103483,-0.7038503,0.7038503,0.7103483,0,0)" />
    <path
       sodipodi:type="arc"
       style="opacity:1;fill:#ffe28d;fill-opacity:1;fill-rule:nonzero;stroke:#000000;stroke-width:2;stroke-linecap:round;stroke-linejoin:miter;stroke-miterlimit:4;stroke-dasharray:none;stroke-dashoffset:0;stroke-opacity:1"
       id="path3219"
       sodipodi:cx="112.85714"
       sodipodi:cy="302.36218"
       sodipodi:rx="11.428572"
       sodipodi:ry="11.428572"
       d="M 124.28571,302.36218 A 11.428572,11.428572 0 1 1 101.42857,302.36218 A 11.428572,11.428572 0 1 1 124.28571,302.36218 z"
       transform="matrix(0.7103483,-0.7038505,0.7038505,0.7103483,-69.827862,430.1518)" />
    <path
       sodipodi:type="arc"
       style="opacity:1;fill:#ffe28d;fill-opacity:1;fill-rule:nonzero;stroke:#000000;stroke-width:2;stroke-linecap:round;stroke-linejoin:miter;stroke-miterlimit:4;stroke-dasharray:none;stroke-dashoffset:0;stroke-opacity:1"
       id="path3221"
       sodipodi:cx="100.71429"
       sodipodi:cy="295.21933"
       sodipodi:rx="5.7142859"
       sodipodi:ry="5.7142859"
       d="M 106.42857,295.21933 A 5.7142859,5.7142859 0 1 1 95.000001,295.21933 A 5.7142859,5.7142859 0 1 1 106.42857,295.21933 z"
       transform="matrix(0.7103483,-0.7038505,0.7038505,0.7103483,-69.827862,430.1518)" />
    <path
       style="fill:none;fill-rule:evenodd;stroke:#000000;stroke-width:2;stroke-linecap:butt;stroke-linejoin:miter;stroke-miterlimit:4;stroke-dasharray:none;stroke-opacity:1"
       d="M 254.35949,526.80032 L 274.88268,511.57338"
       id="path3223"
       sodipodi:nodetypes="cc" />
    <path
       style="fill:none;fill-rule:evenodd;stroke:#000000;stroke-width:2;stroke-linecap:butt;stroke-linejoin:miter;stroke-miterlimit:4;stroke-dasharray:none;stroke-opacity:1"
       d="M 246.20811,521.71091 L 261.43496,492.91217"
       id="path3225"
       sodipodi:nodetypes="cc" />
    <path
       style="fill:none;fill-rule:evenodd;stroke:#000000;stroke-width:2;stroke-linecap:butt;stroke-linejoin:miter;stroke-miterlimit:4;stroke-dasharray:none;stroke-opacity:1"
       d="M 253.82157,519.64203 L 269.13119,499.53255"
       id="path3227"
       sodipodi:nodetypes="cc" />
    <path
       style="fill:#ffffff;fill-opacity:1;fill-rule:evenodd;stroke:#000000;stroke-width:2;stroke-linecap:butt;stroke-linejoin:miter;stroke-miterlimit:4;stroke-dasharray:none;stroke-opacity:1"
       d="M 300.20565,494.77408 C 300.20565,494.77408 311.34569,509.48065 300.12293,510.74578 C 288.74412,512.0285 287.54415,497.00848 287.54415,497.00848 C 287.54415,497.00848 288.61999,511.32508 277.65495,506.73221 C 266.68992,502.13933 279.72379,489.68468 279.72379,489.68468 C 279.72379,489.68468 267.4347,494.02935 266.85539,482.52642 C 266.24464,470.39893 274.05505,474.00264 274.05505,474.00264 C 274.05505,474.00264 261.93145,471.06487 271.48963,463.57553 C 280.48556,456.52675 284.10977,469.32697 284.10977,469.32697 C 284.10977,469.32697 282.95118,458.65159 292.8404,461.25835 C 302.72961,463.86511 295.32306,475.32668 295.32306,475.32668 C 295.32306,475.32668 304.71573,462.78929 310.92237,473.29915 C 317.35857,484.19774 301.98486,484.30558 301.98486,484.30558 C 301.98486,484.30558 320.72884,479.54713 316.50836,492.62242 C 312.28789,505.69771 299.25397,493.49138 300.20565,494.77408 z"
       id="path3229"
       sodipodi:nodetypes="cscscscscscscsc" />
    <path
       style="fill:none;fill-rule:evenodd;stroke:#000000;stroke-width:2;stroke-linecap:butt;stroke-linejoin:miter;stroke-miterlimit:4;stroke-dasharray:none;stroke-opacity:1"
       d="M 188.93442,531.68037 L 203.07655,529.66006 L 189.94457,519.55853"
       id="path3233"
       sodipodi:nodetypes="ccc" />
    <path
       sodipodi:type="arc"
       style="opacity:1;fill:#000000;fill-opacity:1;fill-rule:nonzero;stroke:#000000;stroke-width:2;stroke-linecap:round;stroke-linejoin:miter;stroke-miterlimit:4;stroke-dasharray:none;stroke-dashoffset:0;stroke-opacity:1"
       id="path3237"
       sodipodi:cx="87.5"
       sodipodi:cy="263.43362"
       sodipodi:rx="3.2142856"
       sodipodi:ry="8.2142859"
       d="M 90.714286,263.43362 A 3.2142856,8.2142859 0 1 1 84.285714,263.43362 A 3.2142856,8.2142859 0 1 1 90.714286,263.43362 z"
       transform="translate(328.03572,-41.60715)" />
    <path
       sodipodi:type="arc"
       style="opacity:1;fill:#000000;fill-opacity:1;fill-rule:nonzero;stroke:#000000;stroke-width:2;stroke-linecap:round;stroke-linejoin:miter;stroke-miterlimit:4;stroke-dasharray:none;stroke-dashoffset:0;stroke-opacity:1"
       id="path3239"
       sodipodi:cx="87.5"
       sodipodi:cy="263.43362"
       sodipodi:rx="3.2142856"
       sodipodi:ry="8.2142859"
       d="M 90.714286,263.43362 A 3.2142856,8.2142859 0 1 1 84.285714,263.43362 A 3.2142856,8.2142859 0 1 1 90.714286,263.43362 z"
       transform="translate(348.39286,-41.964307)" />
    <path
       style="fill:none;fill-rule:evenodd;stroke:#000000;stroke-width:2;stroke-linecap:butt;stroke-linejoin:miter;stroke-miterlimit:4;stroke-dasharray:none;stroke-opacity:1"
       d="M 443.94035,250.56596 L 429.79821,248.54565 L 442.9302,238.44412"
       id="path3241"
       sodipodi:nodetypes="ccc" />
    <path
       style="fill:none;fill-rule:evenodd;stroke:#000000;stroke-width:2;stroke-linecap:butt;stroke-linejoin:miter;stroke-miterlimit:4;stroke-dasharray:none;stroke-opacity:1"
       d="M 406.05963,250.56596 L 420.20176,248.54565 L 407.06978,238.44412"
       id="path3243"
       sodipodi:nodetypes="ccc" />
    <path
       style="fill:#dedede;fill-opacity:1;fill-rule:evenodd;stroke:#000000;stroke-width:1px;stroke-linecap:butt;stroke-linejoin:miter;stroke-opacity:1"
       d="M 298.57143,413.07647 L 317.14286,395.93361 L 332.85714,398.79076 L 322.14286,410.93361 L 335.71429,399.50504 L 351.42857,398.79076 L 341.42857,411.6479 L 356.42857,398.79076 C 356.42857,398.79076 376.42857,406.6479 385,406.6479 C 393.57143,406.6479 395,405.93361 395,405.93361 C 395,405.93361 388.57143,415.93362 382.85714,422.36219 C 379.03123,426.66633 374.28571,433.79075 374.28571,433.79075 L 352.14286,438.07647 L 342.85714,425.21933 L 347.85714,439.50504 L 327.14286,438.07647 L 322.85714,423.07647 L 322.14286,438.79075 L 302.14286,432.36218 L 298.57143,413.07647 z"
       id="path3249"
       sodipodi:nodetypes="ccccccccscsccccccccc" />
    <path
       style="fill:none;fill-rule:evenodd;stroke:#000000;stroke-width:2;stroke-linecap:butt;stroke-linejoin:miter;stroke-miterlimit:4;stroke-dasharray:none;stroke-opacity:1"
       d="M 277.85714,408.07647 L 277.85714,408.07647 C 277.85714,408.07647 337.85714,426.6479 362.85714,418.07647"
       id="path3247" />
    <path
       style="fill:none;fill-rule:evenodd;stroke:#000000;stroke-width:1px;stroke-linecap:butt;stroke-linejoin:miter;stroke-opacity:1"
       d="M 323.57143,397.36219 L 312.85714,408.79076"
       id="path3251" />
    <path
       style="fill:none;fill-rule:evenodd;stroke:#000000;stroke-width:1px;stroke-linecap:butt;stroke-linejoin:miter;stroke-opacity:1"
       d="M 362.14286,401.6479 L 349.28571,413.07647"
       id="path3253" />
    <path
       style="fill:none;fill-rule:evenodd;stroke:#000000;stroke-width:1px;stroke-linecap:butt;stroke-linejoin:miter;stroke-opacity:1"
       d="M 337.14286,438.79075 L 332.14286,423.07647"
       id="path3257" />
    <path
       style="fill:none;fill-rule:evenodd;stroke:#000000;stroke-width:1px;stroke-linecap:butt;stroke-linejoin:miter;stroke-opacity:1"
       d="M 308.57143,433.79075 L 306.42857,422.36219"
       id="path3259" />
    <path
       style="fill:none;fill-rule:evenodd;stroke:#000000;stroke-width:1px;stroke-linecap:butt;stroke-linejoin:miter;stroke-opacity:1"
       d="M 365,434.50504 L 355,425.93361"
       id="path3261" />
    <path
       style="fill:none;fill-rule:evenodd;stroke:#000000;stroke-width:1px;stroke-linecap:butt;stroke-linejoin:miter;stroke-opacity:1"
       d="M 340,398.79076 L 333.57143,406.6479"
       id="path3263" />
    <path
       style="fill:none;fill-rule:evenodd;stroke:#000000;stroke-width:1px;stroke-linecap:butt;stroke-linejoin:miter;stroke-opacity:1"
       d="M 317.14286,437.36218 L 314.28571,423.79076"
       id="path3265" />
    <path
       style="fill:#dedede;fill-opacity:1;fill-rule:evenodd;stroke:#000000;stroke-width:1px;stroke-linecap:butt;stroke-linejoin:miter;stroke-opacity:1"
       d="M 485.25,222.71932 L 503.82143,205.57646 L 519.53571,208.43361 L 508.82143,220.57646 L 522.39286,209.14789 L 538.10714,208.43361 L 528.10714,221.29075 L 543.10714,208.43361 C 543.10714,208.43361 563.10714,216.29075 571.67857,216.29075 C 580.25,216.29075 581.67857,215.57646 581.67857,215.57646 C 581.67857,215.57646 575.25,225.57647 569.53571,232.00504 C 565.7098,236.30918 560.96428,243.4336 560.96428,243.4336 L 538.82143,247.71932 L 529.53571,234.86218 L 534.53571,249.14789 L 513.82143,247.71932 L 509.53571,232.71932 L 508.82143,248.4336 L 488.82143,242.00503 L 485.25,222.71932 z"
       id="path3269"
       sodipodi:nodetypes="ccccccccscsccccccccc" />
    <path
       style="fill:none;fill-rule:evenodd;stroke:#000000;stroke-width:2;stroke-linecap:butt;stroke-linejoin:miter;stroke-miterlimit:4;stroke-dasharray:none;stroke-opacity:1"
       d="M 464.53571,217.71932 L 464.53571,217.71932 C 464.53571,217.71932 524.53571,236.29075 549.53571,227.71932"
       id="path3271" />
    <path
       style="fill:none;fill-rule:evenodd;stroke:#000000;stroke-width:1px;stroke-linecap:butt;stroke-linejoin:miter;stroke-opacity:1"
       d="M 510.25,207.00504 L 499.53571,218.43361"
       id="path3273" />
    <path
       style="fill:none;fill-rule:evenodd;stroke:#000000;stroke-width:1px;stroke-linecap:butt;stroke-linejoin:miter;stroke-opacity:1"
       d="M 548.82143,211.29075 L 535.96428,222.71932"
       id="path3275" />
    <path
       style="fill:none;fill-rule:evenodd;stroke:#000000;stroke-width:1px;stroke-linecap:butt;stroke-linejoin:miter;stroke-opacity:1"
       d="M 523.82143,248.4336 L 518.82143,232.71932"
       id="path3277" />
    <path
       style="fill:none;fill-rule:evenodd;stroke:#000000;stroke-width:1px;stroke-linecap:butt;stroke-linejoin:miter;stroke-opacity:1"
       d="M 495.25,243.4336 L 493.10714,232.00504"
       id="path3279" />
    <path
       style="fill:none;fill-rule:evenodd;stroke:#000000;stroke-width:1px;stroke-linecap:butt;stroke-linejoin:miter;stroke-opacity:1"
       d="M 551.67857,244.14789 L 541.67857,235.57646"
       id="path3281" />
    <path
       style="fill:none;fill-rule:evenodd;stroke:#000000;stroke-width:1px;stroke-linecap:butt;stroke-linejoin:miter;stroke-opacity:1"
       d="M 526.67857,208.43361 L 520.25,216.29075"
       id="path3283" />
    <path
       style="fill:none;fill-rule:evenodd;stroke:#000000;stroke-width:1px;stroke-linecap:butt;stroke-linejoin:miter;stroke-opacity:1"
       d="M 503.82143,247.00503 L 500.96428,233.43361"
       id="path3285" />
  </g>
</svg>
